<svg xmlns="http://www.w3.org/2000/svg" width="430" height="430" fill="none" viewBox="0 0 430 430"><g stroke-linejoin="round" stroke-width="18"><path stroke="#121331" d="M400 375c-12.924-19.846-49.454-34.151-92.5-34.151S227.924 355.154 215 375V104h.018c.986-27.153 42.014-49 92.482-49s91.496 21.847 92.482 49H400zm-185 0c-12.924-19.846-49.454-34.151-92.5-34.151S42.924 355.154 30 375V104h.018c.986-27.153 42.014-49 92.482-49s91.496 21.847 92.482 49H215z"/><path stroke="#08a88a" stroke-linecap="round" d="M185 183.408C168.539 175.082 146.595 170 122.5 170s-46.039 5.082-62.5 13.408m125-49.269C168.539 125.98 146.595 121 122.5 121s-46.039 4.98-62.5 13.14m125 98.268C168.539 224.082 146.595 219 122.5 219s-46.039 5.082-62.5 13.408m310 49C353.539 273.082 331.595 268 307.5 268s-46.039 5.082-62.5 13.408m125-49.269C353.539 223.98 331.595 219 307.5 219s-46.039 4.98-62.5 13.14"/></g></svg>